<svg width="447" height="208" viewBox="0 0 447 208" fill="none" xmlns="http://www.w3.org/2000/svg">
    <g clipPath="url(#clip0_1_464)">
        <mask id="mask0_1_464" style="mask-type:luminance" maskUnits="userSpaceOnUse" x="0" y="0"
            width="447" height="208">
            <path d="M0.953369 0H446.953V208H0.953369V0Z" fill="white" />
        </mask>
        <g mask="url(#mask0_1_464)">
            <path
                d="M19.1753 23.6749C86.0523 19.7749 153.348 18.2089 220.308 20.2949C257.493 21.4529 300.6 20.5419 335.963 33.8429C368.987 46.2649 316.957 79.9109 304.165 89.0459C282.9 104.236 157.313 177.416 233.296 202.447C269.269 214.297 315.633 200.443 351.294 193.723C403.853 183.82 458.484 170.602 512.319 174.363C529.415 175.558 574.416 180.409 570.261 205.171C567.257 223.074 544.089 237.621 530.612 247.091C514.294 258.557 451.103 282.874 468.709 310.582C476.953 323.558 496.127 327.601 510.102 329.168C542.914 332.846 574.157 323.813 606.213 318.634C624.96 315.606 777.54 302.839 759.564 345.896C750.902 366.64 721.954 380.583 703.819 391.462C689.625 399.978 665.468 410.168 658.416 426.568C645.35 456.946 695.207 462.218 712.812 460.975C761.536 457.537 808.968 442.019 857.044 434.146C879.527 430.465 903.796 426.738 926.311 432.071C940.925 435.532 963.037 442.895 961.459 461.343C960.446 473.195 949.615 483.925 941.19 491.112C919.229 509.845 892.394 532.523 892.906 564.552C893.527 603.419 941.886 611.816 971.878 612.176C1029.46 612.866 1088.04 604.397 1145.02 596.989C1193.06 590.744 1240.98 583.54 1288.76 575.587C1296.85 574.242 1304.94 572.884 1313.02 571.46C1321.09 570.037 1308.42 558.451 1302.46 559.503C1216.71 574.625 1130.19 587.317 1043.48 595.324C1012.58 598.177 899.53 619.184 909.556 562.411C912.303 546.857 922.242 532.097 932.74 520.641C945.198 507.05 962.91 498.57 972.219 482.08C993.869 443.725 940.376 421.638 910.64 418.183C864.551 412.826 815.781 427.93 771.157 437.434C747.787 442.411 723.873 448.117 699.911 449.077C693.717 449.326 682.293 450.668 676.906 446.789C666.485 439.285 677.875 428.825 684.357 423.458C702.224 408.664 724.213 399.116 743.214 385.879C755.934 377.017 777.689 361.967 777.651 344.258C777.572 309.267 713.213 303.887 690.043 302.194C659.718 299.978 628.925 301.561 598.882 306.156C565.33 311.288 529.443 324.084 495.332 315.629C461.865 307.333 500.255 285.559 513.248 277.659C531.248 266.715 549.572 255.494 565.221 241.28C589.976 218.792 594.131 193.305 561.379 176.414C520.744 155.458 470.949 160.529 427.359 166.581C376.569 173.634 326.652 186.889 275.647 192.335C264.671 193.507 233.008 199.021 225.745 187.043C219.067 176.025 235.852 160.843 242.648 154.576C270.383 129.01 304.309 111.038 333.838 87.7359C349.035 75.7459 376.015 54.4769 356.397 34.7419C337.402 15.6349 300.05 14.2849 275.197 11.8049C194.118 3.70989 111.461 6.65189 30.1933 10.5019C24.1213 10.7889 18.0493 11.0859 11.9803 11.4399C1.79932 12.0339 12.9483 24.0379 19.1753 23.6749Z"
                fill="url(#paint0_linear_1_464)" />
        </g>
    </g>
    <defs>
        <linearGradient id="paint0_linear_1_464" x1="161.341" y1="-3.40612" x2="1315.85"
            y2="661.838" gradientUnits="userSpaceOnUse">
            <stop stopColor="white" stopOpacity="0" />
            <stop offset="0.48" stopColor="#F37362" />
            <stop offset="0.905" stopColor="white" stopOpacity="0" />
        </linearGradient>
        <clipPath id="clip0_1_464">
            <rect width="446" height="208" fill="white" transform="translate(0.953369)" />
        </clipPath>
    </defs>
</svg>