<svg width="1440" height="1017" viewBox="0 0 1440 1017" fill="none" xmlns="http://www.w3.org/2000/svg">
<g clipPath="url(#clip0_1_478)">
<path d="M0 0H0.993146V1017H0V0Z" fill="url(#paint0_linear_1_478)"/>
<path d="M80.4448 0H81.438V1017H80.4448V0Z" fill="url(#paint1_linear_1_478)"/>
<path d="M160.89 0H161.883V1017H160.89V0Z" fill="url(#paint2_linear_1_478)"/>
<path d="M241.334 0H242.328V1017H241.334V0Z" fill="url(#paint3_linear_1_478)"/>
<path d="M321.779 0H322.772V1017H321.779V0Z" fill="url(#paint4_linear_1_478)"/>
<path d="M402.224 0H403.217V1017H402.224V0Z" fill="url(#paint5_linear_1_478)"/>
<path d="M482.669 0H483.662V1017H482.669V0Z" fill="url(#paint6_linear_1_478)"/>
<path d="M563.114 0H564.107V1017H563.114V0Z" fill="url(#paint7_linear_1_478)"/>
<path d="M643.559 0H644.552V1017H643.559V0Z" fill="url(#paint8_linear_1_478)"/>
<path d="M724.003 0H724.997V1017H724.003V0Z" fill="url(#paint9_linear_1_478)"/>
<path d="M804.448 0H805.441V1017H804.448V0Z" fill="url(#paint10_linear_1_478)"/>
<path d="M884.893 0H885.886V1017H884.893V0Z" fill="url(#paint11_linear_1_478)"/>
<path d="M965.338 0H966.331V1017H965.338V0Z" fill="url(#paint12_linear_1_478)"/>
<path d="M1045.78 0H1046.78V1017H1045.78V0Z" fill="url(#paint13_linear_1_478)"/>
<path d="M1126.23 0H1127.22V1017H1126.23V0Z" fill="url(#paint14_linear_1_478)"/>
<path d="M1206.67 0H1207.67V1017H1206.67V0Z" fill="url(#paint15_linear_1_478)"/>
<path d="M1287.12 0H1288.11V1017H1287.12V0Z" fill="url(#paint16_linear_1_478)"/>
<path d="M1367.56 0H1368.56V1017H1367.56V0Z" fill="url(#paint17_linear_1_478)"/>
</g>
<defs>
<linearGradient id="paint0_linear_1_478" x1="0.496573" y1="0" x2="0.496573" y2="1017" gradientUnits="userSpaceOnUse">
<stop stopColor="white" stopOpacity="0.15"/>
<stop offset="0.745" stopColor="white" stopOpacity="0"/>
</linearGradient>
<linearGradient id="paint1_linear_1_478" x1="80.9414" y1="0" x2="80.9414" y2="1017" gradientUnits="userSpaceOnUse">
<stop stopColor="white" stopOpacity="0.15"/>
<stop offset="0.745" stopColor="white" stopOpacity="0"/>
</linearGradient>
<linearGradient id="paint2_linear_1_478" x1="161.386" y1="0" x2="161.386" y2="1017" gradientUnits="userSpaceOnUse">
<stop stopColor="white" stopOpacity="0.15"/>
<stop offset="0.745" stopColor="white" stopOpacity="0"/>
</linearGradient>
<linearGradient id="paint3_linear_1_478" x1="241.831" y1="0" x2="241.831" y2="1017" gradientUnits="userSpaceOnUse">
<stop stopColor="white" stopOpacity="0.15"/>
<stop offset="0.745" stopColor="white" stopOpacity="0"/>
</linearGradient>
<linearGradient id="paint4_linear_1_478" x1="322.276" y1="0" x2="322.276" y2="1017" gradientUnits="userSpaceOnUse">
<stop stopColor="white" stopOpacity="0.15"/>
<stop offset="0.745" stopColor="white" stopOpacity="0"/>
</linearGradient>
<linearGradient id="paint5_linear_1_478" x1="402.721" y1="0" x2="402.721" y2="1017" gradientUnits="userSpaceOnUse">
<stop stopColor="white" stopOpacity="0.15"/>
<stop offset="0.745" stopColor="white" stopOpacity="0"/>
</linearGradient>
<linearGradient id="paint6_linear_1_478" x1="483.166" y1="0" x2="483.166" y2="1017" gradientUnits="userSpaceOnUse">
<stop stopColor="white" stopOpacity="0.15"/>
<stop offset="0.745" stopColor="white" stopOpacity="0"/>
</linearGradient>
<linearGradient id="paint7_linear_1_478" x1="563.61" y1="0" x2="563.61" y2="1017" gradientUnits="userSpaceOnUse">
<stop stopColor="white" stopOpacity="0.15"/>
<stop offset="0.745" stopColor="white" stopOpacity="0"/>
</linearGradient>
<linearGradient id="paint8_linear_1_478" x1="644.055" y1="0" x2="644.055" y2="1017" gradientUnits="userSpaceOnUse">
<stop stopColor="white" stopOpacity="0.15"/>
<stop offset="0.745" stopColor="white" stopOpacity="0"/>
</linearGradient>
<linearGradient id="paint9_linear_1_478" x1="724.5" y1="0" x2="724.5" y2="1017" gradientUnits="userSpaceOnUse">
<stop stopColor="white" stopOpacity="0.15"/>
<stop offset="0.745" stopColor="white" stopOpacity="0"/>
</linearGradient>
<linearGradient id="paint10_linear_1_478" x1="804.945" y1="0" x2="804.945" y2="1017" gradientUnits="userSpaceOnUse">
<stop stopColor="white" stopOpacity="0.15"/>
<stop offset="0.745" stopColor="white" stopOpacity="0"/>
</linearGradient>
<linearGradient id="paint11_linear_1_478" x1="885.39" y1="0" x2="885.39" y2="1017" gradientUnits="userSpaceOnUse">
<stop stopColor="white" stopOpacity="0.15"/>
<stop offset="0.745" stopColor="white" stopOpacity="0"/>
</linearGradient>
<linearGradient id="paint12_linear_1_478" x1="965.834" y1="0" x2="965.834" y2="1017" gradientUnits="userSpaceOnUse">
<stop stopColor="white" stopOpacity="0.15"/>
<stop offset="0.745" stopColor="white" stopOpacity="0"/>
</linearGradient>
<linearGradient id="paint13_linear_1_478" x1="1046.28" y1="0" x2="1046.28" y2="1017" gradientUnits="userSpaceOnUse">
<stop stopColor="white" stopOpacity="0.15"/>
<stop offset="0.745" stopColor="white" stopOpacity="0"/>
</linearGradient>
<linearGradient id="paint14_linear_1_478" x1="1126.72" y1="0" x2="1126.72" y2="1017" gradientUnits="userSpaceOnUse">
<stop stopColor="white" stopOpacity="0.15"/>
<stop offset="0.745" stopColor="white" stopOpacity="0"/>
</linearGradient>
<linearGradient id="paint15_linear_1_478" x1="1207.17" y1="0" x2="1207.17" y2="1017" gradientUnits="userSpaceOnUse">
<stop stopColor="white" stopOpacity="0.15"/>
<stop offset="0.745" stopColor="white" stopOpacity="0"/>
</linearGradient>
<linearGradient id="paint16_linear_1_478" x1="1287.61" y1="0" x2="1287.61" y2="1017" gradientUnits="userSpaceOnUse">
<stop stopColor="white" stopOpacity="0.15"/>
<stop offset="0.745" stopColor="white" stopOpacity="0"/>
</linearGradient>
<linearGradient id="paint17_linear_1_478" x1="1368.06" y1="0" x2="1368.06" y2="1017" gradientUnits="userSpaceOnUse">
<stop stopColor="white" stopOpacity="0.15"/>
<stop offset="0.745" stopColor="white" stopOpacity="0"/>
</linearGradient>
<clipPath id="clip0_1_478">
<rect width="1449" height="1017" fill="white"/>
</clipPath>
</defs>
</svg>
