<svg width="826" height="400" viewBox="0 0 826 400" fill="none" xmlns="http://www.w3.org/2000/svg">
<g clipPath="url(#clip0_1_522)">
<mask id="mask0_1_522" style="mask-type:luminance" maskUnits="userSpaceOnUse" x="-421" y="0" width="1247" height="476">
<path d="M-420.047 0H825.953V476H-420.047V0Z" fill="white"/>
</mask>
<g mask="url(#mask0_1_522)">
<path d="M-790.61 8.30995C-796.598 39.039 -790.747 74.128 -773.809 100.413C-731.309 166.382 -637.466 162.415 -570.011 150.281C-427.86 124.728 -292.572 68.713 -149.761 44.166C-17.8928 21.496 134.878 17.996 236.023 120.424C328.151 213.716 365.365 361.159 297.897 478.555C259.916 544.6 160.468 637.415 75.7842 600.652C8.76324 571.547 59.4943 483.222 89.2502 445.778C150.71 368.438 244.436 314.538 340.306 293.574C473.226 264.554 623.212 299.79 730.69 382.933C776.126 418.121 821.349 465.537 844.365 519.311C848.959 530.012 874.379 529.322 868.573 515.771C799.283 353.808 598.618 266.246 432.978 264.488C324.324 263.313 216.24 302.042 131.507 369.838C79.6703 411.333 9.44226 482.634 17.8002 556.155C26.0452 628.808 116.638 634.708 171.188 616.671C267.599 584.806 341.01 490.328 355.929 391.187C375.208 263.013 301.271 124.952 190.76 60.544C70.2853 -9.68404 -80.5618 7.79796 -210.817 35.442C-293.599 53.022 -374.892 76.875 -456.256 99.958C-530.029 120.863 -616.407 153.192 -693.894 132.962C-747.072 119.099 -775.631 67.964 -765.26 14.74C-762.861 2.43195 -788.237 -3.86005 -790.61 8.30995Z" fill="url(#paint0_linear_1_522)"/>
</g>
</g>
<defs>
<linearGradient id="paint0_linear_1_522" x1="-653.047" y1="83.5" x2="940.953" y2="476" gradientUnits="userSpaceOnUse">
<stop stopColor="white" stopOpacity="0"/>
<stop offset="0.48" stopColor="#F37362"/>
<stop offset="0.905" stopColor="white" stopOpacity="0"/>
</linearGradient>
<clipPath id="clip0_1_522">
<rect width="825" height="400" fill="white" transform="translate(0.953369)"/>
</clipPath>
</defs>
</svg>
